<svg xmlns:dc="http://purl.org/dc/elements/1.1/" xmlns:cc="http://creativecommons.org/ns#" xmlns:rdf="http://www.w3.org/1999/02/22-rdf-syntax-ns#" xmlns:svg="http://www.w3.org/2000/svg" xmlns="http://www.w3.org/2000/svg" xmlns:sodipodi="http://sodipodi.sourceforge.net/DTD/sodipodi-0.dtd" xmlns:inkscape="http://www.inkscape.org/namespaces/inkscape" width="860" height="857.46802" viewBox="0 0 227.54166 226.87174" id="svg2076" inkscape:version="1.0 (4035a4fb49, 2020-05-01)" sodipodi:docname="central.svg"><defs id="defs2070"><clipPath id="clipPath1423" clipPathUnits="userSpaceOnUse"><rect y="292.76666" x="378.35416" height="49.741669" width="47.625" id="rect1425" style="opacity:1;vector-effect:none;fill:#000000;fill-opacity:1;stroke:#ffffff;stroke-width:1;stroke-linecap:butt;stroke-linejoin:miter;stroke-miterlimit:4;stroke-dasharray:none;stroke-dashoffset:0;stroke-opacity:1"></rect></clipPath></defs><metadata></metadata><g inkscape:label="Layer 1" inkscape:groupmode="layer" id="layer1"><path sodipodi:nodetypes="ccsccsccscsccscsccccscscsccscsccsccsccsccccccscsccscsc" inkscape:connector-curvature="0" id="path1018-6-7" style="fill:#ffffff;fill-opacity:1;fill-rule:evenodd;stroke:none;stroke-width:1.25206" d="m 202.42288,173.74194 c -8.25109,10.47596 -19.15778,18.32138 -32.7013,23.56 -13.48341,5.24235 -29.66754,7.85411 -48.48722,7.85411 -19.4858,0 -36.78924,-3.13012 -51.92664,-9.37541 C 54.1603,189.49534 42.39348,179.59656 34.02971,165.98041 25.6422,152.37428 21.45528,137.26067 21.45528,120.68092 c 0,-17.06932 3.75117,-33.511374 11.27353,-49.256014 7.50236,-15.77718 18.69324,-27.97974 33.4976,-36.69033 C 81.06079,26.0528 99.128,21.695624 120.4418,21.695624 c 25.08502,0 44.62463,6.519496 58.62139,19.528382 14.01803,13.01513 20.97702,29.20803 20.97702,48.5273 0,10.809024 -2.46532,21.212384 -7.38967,31.286444 -4.9644,10.0703 -11.4501,18.08225 -19.50457,24.03452 -5.96229,4.60256 -10.81902,6.86127 -14.60401,6.86127 -1.25205,0 -2.34261,-0.49329 -3.23784,-1.44738 -0.91026,-1.01289 -1.36473,-2.45525 -1.36473,-4.43604 0,-1.57007 0.5672,-5.04201 1.64769,-10.39835 l 17.80307,-84.596604 h -31.12996 l -2.92982,13.13659 c -6.69102,-10.71511 -17.04426,-16.0664 -31.05733,-16.0664 -19.65107,0 -35.79637,9.3078 -48.35075,27.86332 -10.38834,15.25007 -15.58189,32.084014 -15.58189,50.566894 0,14.99466 4.30835,26.94309 12.93125,35.97166 8.60295,8.97977 19.43071,13.47963 32.4747,13.47963 12.13495,0 22.85003,-4.46104 32.10401,-13.44454 1.08556,4.37715 3.29671,7.73642 6.61215,10.02021 3.29164,2.29377 8.21221,3.42433 14.7217,3.42433 24.23363,0 44.10127,-10.23678 59.6005,-30.6804 12.32901,-16.19414 18.53549,-34.30017 18.53549,-54.371934 0,-16.83394 -4.088,-32.36321 -12.2126,-46.5365 C 200.93042,30.205869 189.17731,19.254132 173.75199,11.566475 158.33664,3.8638154 140.72891,-3.6582373e-5 120.92133,-3.6582373e-5 97.56292,-3.6582373e-5 76.77622,4.7978524 58.63643,14.339775 40.46656,23.871713 26.14173,38.211566 15.6645,57.266636 5.2323801,76.340506 8.2616566e-8,96.921846 8.2616566e-8,119.04324 8.2616566e-8,139.16884 4.5775101,157.76313 13.76264,174.8763 c 9.2189,17.11311 23.27575,30.04942 42.13927,38.82884 18.86852,8.76939 41.2979,13.16664 67.24433,13.16664 26.80157,0 49.54398,-5.18977 68.20842,-15.58685 16.25676,-9.05869 28.33662,-21.5542 36.187,-37.54299 z m -74.13193,-51.06023 c -3.07129,9.18511 -6.64089,16.21292 -10.79902,20.98201 -2.93355,3.39432 -5.87338,5.89342 -8.85205,7.45848 -3.93644,2.22491 -8.12833,3.31548 -12.65207,3.31548 -5.94725,0 -10.97554,-2.38141 -15.00589,-7.10671 -4.06417,-4.69895 -6.08878,-12.07482 -6.08878,-22.0625 0,-7.43851 1.4524,-16.02637 4.33838,-25.681004 2.96362,-9.71847 7.25817,-17.15319 13.01017,-22.39055 5.73191,-5.19481 12.006,-7.81535 18.72203,-7.81535 6.3229,0 11.52269,2.3814 15.66951,7.11542 4.12304,4.76909 6.16264,11.57156 6.16264,20.4737 0,7.928044 -1.48119,16.497134 -4.50492,25.711024 z"></path></g></svg>